<svg viewBox="0 0 24 24" xmlns="http://www.w3.org/2000/svg"><path d="M18.674 17.287c-.428-.335-.261-1.073-.705-1.438.43-2.524-.776-4.748-2.213-6.174-1.206-1.196-.818-2.36-.818-3.368 0-1.609-.685-3.307-2.76-3.307-2.22 0-2.828 1.785-2.85 2.803-.053 2.447.513 3.083-.972 4.863-1.747 2.095-2.004 4.185-1.61 5.293a2.27 2.27 0 01-.898.627c-1.285.54-.343 1.443-.699 2.085-.1.182-.149.372-.149.555 0 .562.464 1.049 1.306.976 1.136-.098 2.185.679 2.863.679.599 0 1.09-.329 1.319-.781 1.071-.254 2.393-.222 3.463.044.193.519.714.856 1.293.856 1.269 0 1.513-1.387 2.968-1.856.524-.169.788-.66.788-1.116 0-.293-.108-.571-.326-.741zM11.56 9.438c-.248 0-.454-.194-.778-.426-.41-.294-.828-.463-.824-.773 0-.212.295-.277.676-.51.41-.25.569-.503.972-.503.412 0 .536.2 1.096.434.551.23.934.32.934.58 0 .266-.576.456-.9.65-.477.284-.722.548-1.176.548zm1.295-3.911c.686.106.763 1.268.435 1.84l-.277-.109c.144-.407.141-1.077-.338-1.12-.304-.027-.5.36-.542.692a1.351 1.351 0 00-.407-.096c.048-.692.512-1.303 1.129-1.207zm-2.647.248c.526-.126.836.463.838 1.076l-.24.143c-.033-.257-.152-.673-.451-.584-.32.095-.268.812-.09.959l-.237.127c-.327-.53-.326-1.6.18-1.721zM8.563 20.207c-1.527-.67-2.046-.517-2.337-.517-.605 0-.802-.434-.575-.846.193-.348.133-.713.086-1.007-.074-.449-.087-.595.371-.789.634-.26.916-.593 1.126-.843.59-.702 1.184.403 1.672 1.388.317.638.94.961 1.132 1.669.176.653-.553 1.35-1.475.945zm5.434-1.405c-1.076.505-2.447.736-3.473.224-.152-.422-.395-.695-.656-.97.42-.106.73-.61.358-1.117-.398-.54-1.21-.918-2.03-1.53-.768-.572-1.01-1.982.035-3.559-.51 1.396-.212 2.684.044 3.052.053-.741.114-1.979 1.164-3.461.53-.749.537-1.738.549-2.356l.482.318c.355.253.652.531 1.078.531.63 0 .979-.349 1.464-.64.19-.112.477-.226.718-.384.404 1.857 2.08 4.09 2.174 5.363.39-.774-.11-2.636-.11-2.636.654.964.706 1.767.735 2.752.458.181.95.652.995 1.273l-.19-.022c-.099-.689-2.028-1.701-2.202-.404-.925.136-.589 1.55-.775 2.466-.086.42-.245.751-.36 1.1zm3.77-.031c-.767.285-1.284.89-1.64 1.266-.684.725-1.59.377-1.686-.3-.101-.725.28-1.12.445-1.931.15-.74-.018-1.88.336-2.001.229 1.314 1.606.762 1.92.403.512 0 .554.167.669.628.071.289.17.532.45.818.324.335.225.85-.495 1.117zm-6.223-9.755c-.506 0-.885-.324-1.193-.576-.158-.128.039-.365.197-.236.3.245.604.506.996.506.472 0 .888-.39 1.452-.604.192-.073.302.214.112.287-.548.207-.987.623-1.564.623z" /></svg>