<svg width="417" height="417" viewBox="0 0 417 417" fill="none" xmlns="http://www.w3.org/2000/svg">
<path fill-rule="evenodd" clip-rule="evenodd" d="M209 243.151C228.33 243.151 244 227.481 244 208.151C244 188.821 228.33 173.151 209 173.151C189.67 173.151 174 188.821 174 208.151C174 227.481 189.67 243.151 209 243.151ZM209 228.151C220.046 228.151 229 219.196 229 208.151C229 197.105 220.046 188.151 209 188.151C197.954 188.151 189 197.105 189 208.151C189 219.196 197.954 228.151 209 228.151Z" fill="#363333"/>
<path fill-rule="evenodd" clip-rule="evenodd" d="M253.745 4.587L255.413 5.421C347.987 26.688 417 109.463 417 208.5C417 323.592 323.592 417 208.5 417C93.408 417 0 323.592 0 208.5C0 93.408 93.408 0 208.5 0C223.929 0 238.941 1.8765 253.536 5.004L253.745 4.587ZM346.151 145.95H362.998C343.608 98.4117 302.95 61.7157 252.91 47.9547L244.905 61.8383C244.11 61.6418 243.312 61.4516 242.512 61.2678L241.302 60.6631L241.151 60.9655C235.188 59.6877 229.129 58.698 222.975 58.0774L231.435 43.368C223.929 42.3256 216.215 41.7001 208.5 41.7001C163.047 41.7001 121.764 60.0481 91.7404 89.6551L99.7661 103.523C94.6148 108.857 89.8521 114.569 85.5237 120.613L77.145 106.127C55.044 134.483 41.7 169.928 41.7 208.501C41.7 222.887 43.785 236.857 47.121 250.201H63.1702C65.2296 257.383 67.8074 264.347 70.8606 271.05H54.002C73.3925 318.588 113.841 355.075 163.881 369.045L171.871 355.188C179.031 356.972 186.392 358.245 193.913 358.967L185.565 373.423C193.071 374.466 200.577 375.3 208.5 375.3C253.953 375.3 295.236 356.952 325.469 327.345L317.365 313.341C322.464 308.048 327.182 302.383 331.472 296.393L339.855 310.874C361.956 282.518 375.3 247.073 375.3 208.5C375.3 194.114 373.215 180.144 369.67 166.8H353.837C351.779 159.616 349.203 152.651 346.151 145.95ZM353.837 166.8H256.455L331.472 296.393C349.216 271.621 359.662 241.273 359.662 208.5C359.662 194.032 357.631 180.042 353.837 166.8ZM317.365 313.341L268.757 229.35L193.913 358.967C198.714 359.427 203.579 359.663 208.5 359.663C251.243 359.663 289.862 341.892 317.365 313.341ZM171.871 355.188L220.385 271.05H70.8606C89.7474 312.512 126.823 343.963 171.871 355.188ZM63.1702 250.201H160.336L136.359 208.501L85.5237 120.613C67.7829 145.384 57.3375 175.729 57.3375 208.5C57.3375 222.963 59.372 236.953 63.1702 250.201ZM99.7661 103.523L148.452 187.65L172.43 145.95L222.975 58.0774C218.207 57.5967 213.382 57.3376 208.5 57.3376C165.824 57.3376 127.261 75.0516 99.7661 103.523ZM346.151 145.95H196.407L244.905 61.8383C290.081 72.9977 327.242 104.431 346.151 145.95Z" fill="#272121"/>
</svg>
