<svg viewBox="0 0 24 24" xmlns="http://www.w3.org/2000/svg"><path d="M9.794 4.611l-6.429.965A.429.429 0 003 6v5.143c0 .237.192.428.429.428h6.428a.428.428 0 00.429-.428V5.035a.43.43 0 00-.492-.424zM20.85 3.103a.434.434 0 00-.343-.099l-9 1.35a.429.429 0 00-.365.424v6.365c0 .237.192.428.428.428h9a.428.428 0 00.429-.428V3.428a.43.43 0 00-.15-.325zM9.857 12.428H3.43a.428.428 0 00-.429.429V18c0 .212.155.392.365.424l6.429.964a.428.428 0 00.492-.424v-6.107a.428.428 0 00-.429-.429zm10.714 0h-9a.428.428 0 00-.428.429v6.364c0 .212.155.392.365.424l9 1.35a.428.428 0 00.492-.424v-7.714a.428.428 0 00-.429-.429z" /></svg>